<?xml version="1.0" standalone="no"?>
<!DOCTYPE svg PUBLIC "-//W3C//DTD SVG 20010904//EN"
 "http://www.w3.org/TR/2001/REC-SVG-20010904/DTD/svg10.dtd">
<svg version="1.0" xmlns="http://www.w3.org/2000/svg"
 width="1536.000000pt" height="1024.000000pt" viewBox="0 0 1536.000000 1024.000000"
 preserveAspectRatio="xMidYMid meet">

<g transform="translate(0.000000,1024.000000) scale(0.100000,-0.100000)"
fill="#000000" stroke="none">
<path d="M11280 8778 c-12 -24 -57 -97 -100 -163 -108 -166 -164 -286 -200
-430 -46 -186 -40 -263 35 -488 20 -59 35 -125 35 -151 0 -25 -25 -144 -56
-264 -52 -205 -86 -311 -183 -582 -22 -63 -41 -115 -41 -116 0 0 -11 -14 -25
-30 -18 -21 -25 -25 -25 -12 0 9 4 18 10 20 14 5 28 169 24 276 -5 104 -29
219 -69 332 -30 83 -36 92 -51 82 -15 -10 -57 -104 -95 -212 -26 -77 -34 -115
-37 -196 -6 -137 11 -278 48 -404 44 -152 42 -210 -15 -440 -25 -102 -44 -197
-42 -212 2 -15 0 -25 -5 -22 -4 3 -8 -16 -9 -43 -2 -107 -13 -105 -48 6 -30
96 -32 108 -20 145 7 23 17 47 22 53 29 39 16 249 -29 471 -29 142 -47 194
-108 300 -60 104 -78 191 -65 316 20 199 44 273 114 346 74 79 103 143 134
298 31 153 -9 350 -115 571 -71 148 -92 181 -108 175 -7 -3 -21 -44 -30 -92
-22 -113 -29 -140 -59 -242 -35 -121 -47 -201 -47 -321 0 -119 16 -205 62
-337 27 -77 36 -92 51 -88 15 4 16 2 6 -10 -6 -7 -15 -12 -19 -9 -4 2 -10 -33
-14 -78 -3 -45 -8 -91 -10 -102 -3 -11 -5 -44 -5 -72 -1 -29 -5 -53 -10 -53
-5 0 -24 37 -42 83 -18 45 -47 113 -66 151 -18 38 -58 144 -89 235 -84 249
-147 357 -299 508 -135 134 -295 227 -498 287 -101 30 -148 38 -164 28 -14 -9
-10 -16 70 -128 27 -37 96 -160 153 -273 57 -113 108 -208 113 -211 4 -3 19
-25 34 -50 40 -70 132 -176 195 -226 69 -55 191 -115 292 -144 115 -33 148
-56 181 -122 43 -84 138 -339 139 -371 0 -10 -17 -41 -39 -70 -79 -108 -116
-233 -108 -371 l4 -79 -21 38 c-12 20 -64 92 -116 159 -52 66 -111 146 -130
176 -31 46 -180 341 -180 355 0 7 -50 118 -70 155 -10 19 -25 35 -32 35 -34 0
-1 -98 114 -333 27 -57 48 -105 46 -107 -1 -2 -21 9 -43 25 -22 16 -69 45
-105 65 -144 82 -167 98 -185 131 -19 36 -90 100 -149 135 -103 60 -242 64
-389 9 -110 -41 -335 -216 -310 -241 9 -9 25 -9 70 -1 32 7 74 10 93 7 19 -3
84 -12 145 -21 113 -17 229 -15 350 6 33 5 91 10 129 10 74 0 134 -21 251 -89
32 -19 65 -34 72 -34 7 0 13 -3 13 -7 0 -4 24 -23 53 -42 52 -35 95 -92 78
-102 -5 -3 -11 0 -14 8 -3 7 -43 28 -89 46 -70 28 -100 33 -193 38 -135 5
-212 -12 -292 -65 -109 -72 -143 -119 -97 -137 8 -3 64 -10 124 -16 143 -15
243 6 415 85 62 29 111 33 156 15 25 -11 105 -100 188 -212 24 -32 48 -55 54
-51 6 3 7 1 3 -6 -4 -6 -2 -19 5 -27 12 -14 14 -14 21 3 7 14 7 13 4 -6 -3
-15 7 -45 26 -80 17 -30 42 -76 55 -101 42 -80 88 -134 136 -160 72 -40 90
-63 124 -157 37 -104 63 -190 63 -209 0 -7 4 -15 9 -18 5 -4 7 4 5 16 -4 21
-4 22 5 3 13 -27 13 -48 1 -40 -5 3 -10 -1 -10 -9 0 -12 -12 -16 -47 -17 -27
-1 -64 -2 -84 -3 l-36 -1 -21 125 c-26 149 -60 263 -75 253 -6 -3 -7 -1 -3 5
6 10 -28 129 -40 142 -3 2 -10 -2 -15 -10 -9 -12 -10 -12 -5 3 9 27 -37 108
-84 151 -59 53 -123 79 -191 79 -31 -1 -66 -6 -77 -12 -19 -10 -20 -15 -10
-44 15 -44 149 -169 223 -208 33 -18 72 -40 87 -51 32 -22 42 -23 34 -2 -3 8
-2 12 4 9 6 -3 10 -12 10 -18 0 -7 7 -25 16 -42 17 -33 45 -136 73 -274 19
-89 31 -124 31 -88 0 9 5 17 10 17 14 0 13 -13 -2 -28 -8 -8 -61 -12 -170 -12
-123 0 -166 -3 -188 -15 -53 -27 -52 -96 2 -147 l31 -29 -6 -227 c-7 -240 -23
-358 -55 -402 -10 -14 -77 -64 -149 -112 -262 -175 -414 -348 -508 -579 -43
-106 -61 -174 -81 -313 -21 -141 -14 -370 16 -541 35 -202 130 -450 257 -669
49 -85 216 -319 267 -373 59 -64 28 -61 746 -64 718 -3 693 -5 703 57 5 32 10
38 81 123 107 126 256 391 324 577 55 150 117 404 132 543 24 213 2 439 -60
618 -87 252 -285 485 -550 648 -55 33 -127 101 -145 135 -25 48 -36 181 -33
393 2 131 -1 209 -7 212 -5 3 0 2 12 -1 25 -6 73 33 73 59 0 70 -56 107 -163
107 -103 0 -289 13 -280 19 5 3 19 76 31 161 25 173 84 419 133 554 26 73 42
100 84 143 28 29 49 56 46 60 -3 3 -1 3 6 -1 7 -4 35 5 63 20 49 26 56 27 157
21 114 -6 248 10 313 39 128 56 213 117 309 220 59 63 62 68 45 81 -19 14 -79
17 -259 14 -234 -4 -383 -75 -510 -246 -38 -50 -124 -133 -148 -141 -9 -3 -15
-10 -12 -15 4 -5 1 -9 -4 -9 -21 0 -26 -2 -38 -12 -22 -18 -14 8 8 28 25 23
63 96 125 242 160 376 168 389 268 485 81 76 137 115 197 136 27 10 47 20 45
22 -2 2 5 5 17 6 12 0 54 6 92 12 153 23 191 14 279 -69 75 -69 147 -115 223
-142 58 -19 87 -23 198 -23 72 0 162 2 200 4 39 3 89 1 113 -3 36 -7 42 -5 42
10 0 9 -24 42 -52 73 -137 145 -218 196 -361 225 -101 21 -178 20 -339 -4 -73
-11 -167 -20 -208 -20 -41 0 -94 -5 -118 -10 -23 -6 -59 -13 -80 -16 -20 -3
-41 -8 -47 -11 -5 -3 38 42 96 101 l107 106 70 0 c199 0 386 87 532 247 57 63
240 325 240 344 0 11 -32 11 -85 0 -416 -87 -510 -124 -636 -250 -75 -76 -92
-103 -176 -291 -24 -52 -52 -88 -144 -180 -139 -140 -294 -290 -301 -290 -9 0
108 443 129 490 11 25 32 58 47 73 14 16 23 33 20 39 -4 6 -2 8 4 4 11 -6 77
119 107 205 58 162 80 474 52 726 -21 182 -43 215 -87 131z m44 -285 c10 -108
11 -177 4 -240 -5 -48 -10 -114 -11 -145 -1 -32 -6 -58 -11 -58 -5 0 -7 -3 -4
-6 9 -8 -90 -285 -110 -309 -9 -11 -23 -25 -31 -31 -8 -6 -11 -15 -8 -21 3 -5
1 -10 -6 -10 -14 0 2 222 26 372 9 50 18 117 22 150 3 33 9 76 12 95 3 19 3
32 0 29 -9 -7 -55 -241 -62 -315 -18 -166 -48 -364 -57 -364 -4 0 -8 7 -8 15
0 8 -4 15 -8 15 -5 0 -9 6 -9 13 -1 15 -6 38 -38 157 -14 52 -25 122 -25 155
0 97 29 232 72 330 47 108 59 129 152 267 85 126 80 131 100 -99z m-1055 -195
c2 43 26 17 34 -36 5 -29 13 -50 18 -47 5 4 6 -1 3 -9 -3 -9 -1 -16 5 -16 6 0
11 -7 11 -16 0 -9 11 -38 25 -66 30 -59 59 -152 70 -221 2 -15 7 -32 10 -37 3
-6 2 -10 -4 -10 -7 0 -7 -8 -2 -22 30 -80 -44 -352 -113 -417 l-24 -22 2 83
c1 108 -12 283 -29 378 l-14 75 5 -75 c4 -70 15 -296 16 -365 1 -29 -9 -96
-18 -125 -8 -22 -21 5 -45 92 -67 237 -66 406 5 658 36 127 44 170 35 176 -5
3 -9 15 -8 27 1 20 2 20 9 -3 8 -25 8 -25 9 -2z m-1161 -58 c9 -5 60 -24 112
-41 52 -17 99 -34 105 -38 5 -5 28 -14 50 -21 22 -7 52 -20 66 -29 50 -31 134
-90 161 -113 49 -42 201 -222 217 -258 9 -19 27 -51 39 -70 12 -19 22 -45 22
-56 0 -12 7 -27 15 -34 8 -7 15 -24 14 -39 -1 -14 6 -43 15 -63 9 -21 14 -38
11 -38 -3 0 1 -12 8 -27 8 -16 18 -46 21 -67 7 -35 6 -37 -8 -25 -8 8 -21 19
-28 25 -45 39 -171 189 -257 304 -123 164 -194 249 -262 315 -61 59 -53 37 11
-32 25 -26 106 -129 180 -228 164 -221 196 -260 285 -346 62 -61 67 -69 45
-69 -14 0 -38 7 -55 16 -16 9 -57 27 -90 40 -76 31 -146 78 -211 143 -29 27
-54 47 -58 44 -3 -4 -6 1 -6 10 0 9 -8 22 -19 29 -10 7 -30 33 -44 58 -14 25
-31 44 -37 42 -6 -1 -9 2 -6 7 3 5 -12 40 -33 79 -22 38 -67 127 -101 196 -39
82 -64 125 -72 120 -7 -4 -8 -3 -4 4 4 6 1 22 -5 34 -13 25 -88 119 -104 130
-15 11 3 10 23 -2z m3153 -178 c-5 -10 -28 -40 -50 -67 -23 -27 -41 -53 -41
-57 0 -42 -225 -278 -273 -286 -9 -2 -39 -13 -65 -26 -59 -29 -122 -45 -208
-51 -36 -3 -71 -8 -77 -12 -7 -3 -1 6 12 20 14 15 29 27 35 27 6 0 39 26 73
58 105 97 152 135 236 189 97 62 88 72 -10 12 -64 -39 -251 -181 -300 -228
-13 -12 -37 -24 -54 -28 l-30 -6 16 39 c9 21 17 44 18 49 1 6 9 17 18 25 9 8
14 20 12 27 -2 6 1 15 8 19 8 5 10 3 4 -7 -4 -8 4 -1 18 16 14 16 23 33 20 37
-2 5 3 8 11 8 8 0 23 10 33 23 31 40 108 92 169 116 32 13 68 27 79 31 45 19
124 40 185 50 51 8 120 24 168 39 1 1 -2 -7 -7 -17z m-1254 -244 c-3 -8 -6 -5
-6 6 -1 11 2 17 5 13 3 -3 4 -12 1 -19z m525 -238 c-12 -11 -25 -20 -29 -20
-9 1 36 40 45 40 3 0 -4 -9 -16 -20z m65 -26 c-3 -3 -12 -4 -19 -1 -8 3 -5 6
6 6 11 1 17 -2 13 -5z m-524 -96 c-3 -18 -10 -37 -15 -43 -7 -7 -8 -1 -3 15 3
14 9 33 11 43 9 29 14 19 7 -15z m278 -61 c-10 -9 -11 -8 -5 6 3 10 9 15 12
12 3 -3 0 -11 -7 -18z m-298 -18 c-6 -6 -9 -19 -6 -28 4 -9 3 -13 -1 -10 -11
10 -16 50 -5 44 5 -4 9 -1 9 6 0 7 3 9 7 6 4 -4 2 -12 -4 -18z m1045 -34 c94
-14 200 -71 239 -128 10 -15 23 -25 30 -23 7 3 10 -1 6 -9 -3 -9 4 -18 18 -24
13 -5 33 -19 44 -31 l20 -23 -22 12 c-13 6 -34 9 -48 5 -30 -7 -34 3 -5 14 19
7 18 9 -12 26 l-33 19 18 -20 c17 -20 17 -21 -30 -33 -153 -39 -333 -14 -451
64 -37 24 -85 60 -107 81 l-40 38 30 -7 c17 -3 41 -8 55 -10 14 -2 72 -14 130
-26 192 -41 279 -57 275 -50 -5 7 -45 17 -285 71 -153 34 -189 49 -124 50 21
0 57 4 79 8 43 8 144 6 213 -4z m-541 -11 c-3 -3 -12 -4 -19 -1 -8 3 -5 6 6 6
11 1 17 -2 13 -5z m203 -4 c0 -5 -4 -10 -10 -10 -5 0 -10 5 -10 10 0 6 5 10
10 10 6 0 10 -4 10 -10z m-1740 -10 c0 -5 -2 -10 -4 -10 -3 0 -8 5 -11 10 -3
6 -1 10 4 10 6 0 11 -4 11 -10z m1254 -11 c-31 -12 -40 -9 -20 6 10 8 24 11
29 8 6 -4 2 -10 -9 -14z m-49 -29 c-3 -5 -12 -10 -18 -10 -7 0 -6 4 3 10 19
12 23 12 15 0z m-204 -36 c-9 -28 -9 -29 -10 -3 -1 14 2 29 6 32 11 12 13 2 4
-29z m-931 -88 c0 -3 -4 -8 -10 -11 -5 -3 -10 -1 -10 4 0 6 5 11 10 11 6 0 10
-2 10 -4z m131 -23 c-12 -20 -14 -14 -5 12 4 9 9 14 11 11 3 -2 0 -13 -6 -23z
m-701 -4 c0 -6 -4 -7 -10 -4 -5 3 -10 11 -10 16 0 6 5 7 10 4 6 -3 10 -11 10
-16z m1137 -20 c6 -19 22 -78 34 -133 19 -87 21 -115 15 -236 -4 -76 -9 -149
-12 -162 -2 -12 -9 -48 -15 -78 -11 -58 -49 -150 -61 -150 -5 0 -8 13 -8 28 0
16 -8 53 -17 83 -27 87 -39 163 -51 322 -10 114 -2 161 45 282 11 28 23 58 26
68 10 27 30 16 44 -24z m333 26 c0 -8 -4 -15 -10 -15 -5 0 -7 7 -4 15 4 8 8
15 10 15 2 0 4 -7 4 -15z m-1446 -75 c-7 -6 -24 22 -23 40 0 9 6 5 14 -10 7
-14 11 -27 9 -30z m2823 44 c-3 -3 -12 -4 -19 -1 -8 3 -5 6 6 6 11 1 17 -2 13
-5z m-3222 -48 c32 -14 79 -45 107 -67 42 -36 48 -46 43 -68 -9 -35 -8 -35
-48 -8 -42 28 -198 93 -257 106 -65 15 -46 -4 28 -26 70 -21 211 -84 212 -94
0 -3 -60 -11 -132 -18 -73 -6 -149 -13 -168 -15 -19 -2 -91 4 -160 14 -69 10
-131 15 -138 13 -7 -3 -18 0 -26 6 -7 6 -16 8 -19 4 -4 -3 -7 -4 -7 -1 0 10
166 117 216 139 127 57 248 62 349 15z m1815 -1 c0 -8 -4 -15 -10 -15 -5 0 -7
7 -4 15 4 8 8 15 10 15 2 0 4 -7 4 -15z m-758 -197 c23 -64 33 -105 24 -96 -4
3 -9 12 -10 20 -2 7 -9 27 -16 43 -15 35 -31 99 -23 91 3 -3 15 -29 25 -58z
m-548 -38 c8 -17 10 -28 5 -25 -5 4 -16 20 -25 37 -9 16 -11 27 -5 24 5 -4 16
-20 25 -36z m1944 -75 c13 -13 -195 -185 -224 -185 -3 0 -34 -13 -68 -29 -76
-36 -166 -50 -276 -44 -47 3 -93 6 -102 6 -23 2 -18 9 96 144 38 44 88 69 200
99 80 21 107 24 229 20 76 -2 141 -7 145 -11z m-1876 -61 c-9 -16 -10 -14 -9
8 1 15 6 23 11 18 4 -4 4 -16 -2 -26z m538 -30 c0 -7 6 -14 14 -17 33 -13 80
-162 101 -316 4 -25 14 -51 23 -58 16 -12 16 -13 -1 -7 -16 6 -17 3 -10 -22 4
-16 7 -83 6 -149 -3 -174 -21 -219 -60 -152 -27 44 -104 284 -132 407 -9 42
-10 41 -5 -20 8 -92 56 -278 88 -340 7 -14 16 -41 19 -60 5 -30 4 -32 -6 -16
-7 10 -33 41 -58 67 -51 53 -97 135 -124 218 -13 40 -18 89 -18 181 -1 116 1
129 26 180 15 30 40 73 57 95 17 22 33 48 36 58 6 16 9 15 25 -10 11 -15 19
-33 19 -39z m-772 -30 c51 -4 92 -11 92 -15 0 -5 -8 -9 -17 -9 -10 -1 -29 -7
-43 -16 -24 -14 -22 -14 30 -10 38 4 47 3 29 -3 -14 -5 -37 -16 -50 -24 -55
-36 -151 -59 -248 -59 -100 1 -171 9 -171 21 0 11 40 45 86 74 75 46 121 53
292 41z m122 -24 c0 -5 -5 -10 -11 -10 -5 0 -7 5 -4 10 3 6 8 10 11 10 2 0 4
-4 4 -10z m1176 -42 c-19 -27 -20 -22 -4 23 8 23 13 28 16 17 2 -10 -4 -28
-12 -40z m-1086 26 c0 -2 -9 -4 -20 -4 -11 0 -20 4 -20 9 0 5 9 7 20 4 11 -3
20 -7 20 -9z m117 -39 c5 -4 3 -5 -4 -2 -6 4 -13 2 -15 -4 -2 -7 -8 -6 -16 3
-9 12 -8 14 8 13 11 -1 23 -5 27 -10z m1013 -110 c-7 -8 -17 -15 -23 -15 -6 0
-2 7 9 15 25 19 30 19 14 0z m-869 -92 c13 -16 12 -17 -3 -4 -10 7 -18 15 -18
17 0 8 8 3 21 -13z m-32 -173 c49 -25 125 -109 151 -168 11 -25 19 -47 17 -49
-5 -5 -80 30 -137 64 -44 27 -170 148 -170 164 0 17 100 9 139 -11z m666 -40
c-4 -23 -9 -39 -12 -36 -3 2 -2 23 2 46 4 23 9 39 12 36 3 -2 2 -23 -2 -46z
m-22 -101 c-6 -6 -7 3 -4 23 4 28 6 29 9 9 2 -13 0 -27 -5 -32z m-26 -81 c-3
-7 -5 -2 -5 12 0 14 2 19 5 13 2 -7 2 -19 0 -25z m-22 -78 c-12 -39 -14 -40
-9 -10 8 49 16 77 21 65 2 -6 -4 -30 -12 -55z m-343 -72 c-7 -7 -12 -8 -12 -2
0 14 12 26 19 19 2 -3 -1 -11 -7 -17z m38 -103 c0 -5 -5 -3 -10 5 -5 8 -10 20
-10 25 0 6 5 3 10 -5 5 -8 10 -19 10 -25z m277 -37 c-3 -8 -6 -5 -6 6 -1 11 2
17 5 13 3 -3 4 -12 1 -19z m-290 -10 c-3 -8 -6 -5 -6 6 -1 11 2 17 5 13 3 -3
4 -12 1 -19z m32 -38 c0 -9 -4 -8 -9 5 -5 11 -9 27 -9 35 0 9 4 8 9 -5 5 -11
9 -27 9 -35z m258 -2 c-3 -7 -5 -2 -5 12 0 14 2 19 5 13 2 -7 2 -19 0 -25z
m-264 -53 c4 -8 2 -17 -3 -20 -6 -4 -10 3 -10 14 0 25 6 27 13 6z m608 -143
c21 -18 22 -22 10 -45 -16 -30 -49 -37 -143 -29 -45 3 -68 1 -68 -6 0 -6 6
-12 13 -15 6 -3 -8 -2 -32 1 -32 4 -42 2 -37 -6 5 -8 -1 -12 -16 -12 -17 0
-19 3 -9 9 18 12 4 19 -57 27 -43 5 -53 4 -58 -10 -3 -9 -10 -16 -15 -16 -4 0
-6 6 -3 14 6 15 -11 16 -33 3 -6 -4 -23 -3 -38 3 -33 13 -48 13 -40 0 3 -5 15
-10 26 -10 10 0 19 -5 19 -11 0 -5 -4 -8 -10 -4 -5 3 -18 0 -29 -6 -15 -10
-24 -9 -45 4 -25 17 -26 17 -26 0 0 -12 -3 -14 -8 -6 -7 12 -43 11 -105 -3
-16 -3 -34 -1 -42 6 -8 7 -22 10 -30 6 -9 -3 -14 -2 -10 3 6 10 -50 26 -77 22
-27 -4 -78 28 -78 48 0 44 -3 44 571 49 330 3 347 2 370 -16z m-320 -99 c12
-15 12 -16 -4 -10 -10 4 -23 7 -28 7 -6 0 -7 5 -4 10 9 15 21 12 36 -7z m-581
-3 c0 -5 -2 -10 -4 -10 -3 0 -8 5 -11 10 -3 6 -1 10 4 10 6 0 11 -4 11 -10z
m832 -218 c-2 -103 1 -229 7 -280 19 -156 72 -225 273 -349 197 -123 399 -387
461 -604 58 -201 64 -433 18 -674 -34 -180 -137 -472 -218 -617 -69 -125 -197
-327 -248 -391 -25 -32 -57 -62 -71 -67 -15 -6 -269 -10 -630 -10 l-604 0 -44
40 c-27 25 -47 37 -51 30 -3 -6 -11 -8 -16 -4 -5 3 -7 10 -3 15 3 5 10 7 15 4
19 -12 7 8 -71 125 -175 261 -282 491 -344 738 -35 137 -47 245 -48 401 0 167
21 308 62 426 40 111 48 128 123 240 75 112 194 231 312 312 164 113 226 166
245 208 34 74 44 171 45 410 l0 230 255 -2 c140 -1 298 1 350 5 52 4 115 6
140 4 l45 -4 -3 -186z m15 -99 c-3 -10 -5 -2 -5 17 0 19 2 27 5 18 2 -10 2
-26 0 -35z m-834 -230 c-7 -2 -19 -2 -25 0 -7 3 -2 5 12 5 14 0 19 -2 13 -5z
m-18 -112 c-3 -6 -11 -11 -16 -11 -5 0 -4 6 3 14 14 16 24 13 13 -3z m970 -51
c3 -6 -1 -7 -9 -4 -18 7 -21 14 -7 14 6 0 13 -4 16 -10z m-1205 -124 c0 -2 -7
-6 -15 -10 -8 -3 -15 -1 -15 4 0 6 7 10 15 10 8 0 15 -2 15 -4z m-42 -58 c-18
-15 -34 -25 -37 -22 -3 3 1 9 9 14 12 8 12 10 1 10 -11 0 -11 3 -1 15 7 8 23
14 36 13 24 -2 24 -3 -8 -30z m1512 -11 c11 -18 8 -17 -18 4 -17 13 -31 27
-31 32 -1 12 35 -14 49 -36z m45 4 c3 -5 1 -12 -5 -16 -5 -3 -10 1 -10 9 0 18
6 21 15 7z m-1615 -36 c-7 -8 -17 -15 -23 -15 -6 0 -2 7 9 15 25 19 30 19 14
0z m1714 -57 c15 -16 24 -28 18 -28 -6 0 -17 9 -25 20 -8 11 -16 18 -18 16 -2
-1 -17 13 -34 33 l-29 36 29 -25 c17 -14 43 -37 59 -52z m-1820 -36 c-12 -9
-24 -24 -27 -32 -4 -12 -6 -12 -6 2 -1 9 9 24 21 32 30 21 38 20 12 -2z m-76
-94 c-18 -25 -37 -45 -43 -47 -5 -1 -18 -10 -27 -18 -10 -9 -18 -11 -18 -6 0
15 27 36 37 30 5 -3 24 17 43 44 18 27 35 47 38 45 2 -3 -11 -24 -30 -48z
m1957 1 c11 -17 -1 -21 -15 -4 -8 9 -8 15 -2 15 6 0 14 -5 17 -11z m-2085
-129 c0 -5 -2 -10 -4 -10 -3 0 -8 5 -11 10 -3 6 -1 10 4 10 6 0 11 -4 11 -10z
m35 -10 c-3 -5 -12 -10 -18 -10 -7 0 -6 4 3 10 19 12 23 12 15 0z m-25 -30 c0
-5 -5 -10 -11 -10 -5 0 -7 5 -4 10 3 6 8 10 11 10 2 0 4 -4 4 -10z m-27 -53
c10 9 8 -10 -2 -26 -12 -19 -41 -23 -34 -5 3 8 10 14 15 14 6 0 4 8 -3 18 -12
15 -12 16 2 5 9 -7 19 -10 22 -6z m2267 -11 c0 -3 -4 -8 -10 -11 -5 -3 -10 -1
-10 4 0 6 5 11 10 11 6 0 10 -2 10 -4z m5 -47 c11 -17 -1 -21 -15 -4 -8 9 -8
15 -2 15 6 0 14 -5 17 -11z m-2319 -90 c-9 -19 -15 -27 -16 -18 0 18 24 72 28
60 1 -4 -4 -23 -12 -42z m-26 11 c0 -5 -4 -10 -10 -10 -5 0 -10 5 -10 10 0 6
5 10 10 10 6 0 10 -4 10 -10z m2360 -20 c0 -5 -5 -10 -11 -10 -5 0 -7 5 -4 10
3 6 8 10 11 10 2 0 4 -4 4 -10z m-2360 -82 l-5 -43 -3 39 c-3 31 -6 36 -14 25
-7 -11 -8 -9 -3 6 4 11 7 29 7 40 -1 19 0 18 11 -2 7 -13 10 -41 7 -65z m2370
32 c0 -5 -2 -10 -4 -10 -3 0 -8 5 -11 10 -3 6 -1 10 4 10 6 0 11 -4 11 -10z
m-3 -42 c-3 -8 -6 -5 -6 6 -1 11 2 17 5 13 3 -3 4 -12 1 -19z m51 -13 c-3 -28
-13 -33 -22 -9 -4 10 -2 13 6 8 7 -5 9 0 6 14 -4 12 -2 20 3 17 5 -4 8 -17 7
-30z m-2428 -85 c0 -16 -4 -30 -8 -30 -5 0 -7 14 -4 30 2 17 6 30 8 30 2 0 4
-13 4 -30z m-30 -79 c0 -6 -4 -13 -10 -16 -5 -3 -10 1 -10 9 0 9 5 16 10 16 6
0 10 -4 10 -9z m20 -91 c0 -5 -5 -10 -11 -10 -5 0 -7 5 -4 10 3 6 8 10 11 10
2 0 4 -4 4 -10z m-3 -67 c-3 -10 -5 -4 -5 12 0 17 2 24 5 18 2 -7 2 -21 0 -30z
m2400 -35 c-3 -7 -5 -2 -5 12 0 14 2 19 5 13 2 -7 2 -19 0 -25z m30 -30 c-2
-13 -4 -3 -4 22 0 25 2 35 4 23 2 -13 2 -33 0 -45z m-2430 20 c-3 -8 -6 -5 -6
6 -1 11 2 17 5 13 3 -3 4 -12 1 -19z m-1 -18 c8 0 14 -10 14 -26 0 -14 -4 -23
-10 -19 -6 4 -8 10 -5 15 3 4 -2 10 -10 14 -8 3 -14 16 -14 28 1 17 2 18 6 6
2 -10 11 -18 19 -18z m2433 -71 c-5 -11 -7 -24 -4 -29 3 -6 -1 -10 -10 -10
-12 0 -14 4 -5 19 6 13 7 22 0 26 -5 3 -7 12 -3 21 4 11 9 12 19 3 10 -8 11
-16 3 -30z m-42 -16 c-3 -10 -5 -2 -5 17 0 19 2 27 5 18 2 -10 2 -26 0 -35z
m-2380 -5 c-3 -8 -6 -5 -6 6 -1 11 2 17 5 13 3 -3 4 -12 1 -19z m13 -102 c-7
-7 -10 0 -10 22 0 18 -5 32 -11 32 -8 0 -7 6 2 16 12 15 15 12 22 -21 4 -24 4
-42 -3 -49z m2365 74 c3 -5 1 -10 -4 -10 -6 0 -11 5 -11 10 0 6 2 10 4 10 3 0
8 -4 11 -10z m19 -39 c3 -5 -1 -14 -8 -20 -12 -10 -13 -8 -9 8 6 23 9 25 17
12z m-12 -82 c-2 -17 -8 -27 -13 -22 -9 9 -1 53 10 53 4 0 6 -14 3 -31z m-37
-69 c3 -5 1 -10 -4 -10 -6 0 -11 5 -11 10 0 6 2 10 4 10 3 0 8 -4 11 -10z
m-2335 -15 c7 -9 8 -15 2 -15 -5 0 -12 7 -16 15 -3 8 -4 15 -2 15 2 0 9 -7 16
-15z m2345 -45 c3 -5 -1 -10 -9 -10 -9 0 -16 5 -16 10 0 6 4 10 9 10 6 0 13
-4 16 -10z m-74 -77 c-12 -20 -14 -14 -5 12 4 9 9 14 11 11 3 -2 0 -13 -6 -23z
m26 -45 c-3 -8 -6 -5 -6 6 -1 11 2 17 5 13 3 -3 4 -12 1 -19z m-37 -2 c0 -3
-4 -8 -10 -11 -5 -3 -10 -1 -10 4 0 6 5 11 10 11 6 0 10 -2 10 -4z m-2182 -32
c0 -15 6 -30 13 -35 8 -5 9 -9 3 -9 -20 0 -36 28 -29 50 9 27 13 25 13 -6z
m82 -123 c0 -15 -14 -6 -16 10 -3 22 -5 23 -15 9 -9 -12 -10 -12 -5 3 3 10 6
24 6 30 1 16 29 -34 30 -52z m31 -66 c8 -16 6 -15 -10 4 -12 13 -21 28 -21 35
0 12 14 -5 31 -39z m29 -50 c19 -22 8 -25 -12 -3 -10 10 -14 18 -9 18 5 0 14
-7 21 -15z m74 -135 c-6 -5 -24 21 -24 34 0 6 6 1 14 -10 8 -10 12 -21 10 -24z
m21 -30 c3 -5 1 -10 -4 -10 -6 0 -11 5 -11 10 0 6 2 10 4 10 3 0 8 -4 11 -10z
m25 -34 c0 -3 -4 -8 -10 -11 -5 -3 -10 -1 -10 4 0 6 5 11 10 11 6 0 10 -2 10
-4z m250 -276 c11 -7 11 -10 2 -10 -8 0 -10 -5 -6 -12 5 -9 2 -9 -9 1 -30 24
-19 41 13 21z m126 -15 c9 -8 12 -16 7 -16 -53 -7 -71 -8 -90 -4 -28 7 -30 21
-3 21 11 0 20 -3 20 -7 0 -4 9 -5 20 -2 11 3 20 9 20 14 0 13 9 11 26 -6z m79
5 c-4 -6 -15 -8 -26 -5 -11 4 -19 2 -19 -6 0 -8 12 -10 38 -5 20 3 53 6 72 6
26 0 31 3 20 10 -12 8 -11 10 7 10 12 0 25 -4 28 -10 3 -5 11 -10 16 -10 6 0
8 4 5 8 -3 5 33 10 80 11 57 1 83 -2 79 -9 -3 -6 4 -10 17 -10 18 0 20 2 8 10
-10 6 35 10 135 10 100 0 145 -4 135 -10 -13 -8 -12 -10 3 -10 9 0 17 -4 17
-9 0 -12 -34 -24 -37 -14 -4 11 -81 4 -89 -9 -3 -5 -12 -4 -22 4 -10 8 -13 9
-9 1 5 -8 -2 -11 -23 -11 -18 1 -30 6 -30 15 0 13 14 15 112 17 25 1 50 5 54
9 5 4 -31 7 -79 6 -48 -1 -87 -5 -87 -10 0 -18 -41 -31 -70 -21 -18 7 -31 7
-38 0 -5 -5 -20 -7 -32 -3 -17 5 -19 10 -9 21 7 8 7 14 1 14 -5 0 -13 -7 -16
-16 -3 -8 -10 -12 -16 -9 -5 3 -10 1 -10 -6 0 -8 -4 -8 -13 -1 -14 12 -66 14
-179 7 -73 -5 -78 -4 -78 15 0 16 7 20 31 20 18 0 28 -4 24 -10z m715 -10
c-19 -15 -16 -16 46 -13 55 2 64 0 55 -11 -11 -13 -116 -14 -150 -1 -7 3 -20
0 -27 -6 -16 -13 -18 -1 -4 21 7 11 5 17 -8 22 -9 4 11 6 45 5 59 -2 62 -3 43
-17z m85 11 c3 -6 -6 -8 -22 -5 -37 7 -42 14 -10 14 14 0 28 -4 32 -9z m-1075
-11 c0 -5 -2 -10 -4 -10 -3 0 -8 5 -11 10 -3 6 -1 10 4 10 6 0 11 -4 11 -10z
m35 0 c3 -5 2 -10 -4 -10 -5 0 -13 5 -16 10 -3 6 -2 10 4 10 5 0 13 -4 16 -10z
m1145 -11 c0 -15 -22 -22 -30 -9 -5 9 -9 9 -14 1 -10 -16 -26 -14 -26 4 0 10
10 14 35 13 19 -1 35 -5 35 -9z m75 1 c14 -6 16 -9 5 -10 -26 -4 -55 1 -64 11
-13 11 32 11 59 -1z m112 -12 c-3 -8 -6 -5 -6 6 -1 11 2 17 5 13 3 -3 4 -12 1
-19z m-170 -24 c-3 -3 -12 -4 -19 -1 -8 3 -5 6 6 6 11 1 17 -2 13 -5z"/>
<path d="M11225 6656 c-79 -30 -171 -74 -213 -103 -45 -30 -29 -30 28 1 25 13
95 45 155 71 61 26 112 49 114 51 11 10 -29 1 -84 -20z"/>
<path d="M10158 5333 c18 -2 45 -2 60 0 15 2 0 4 -33 4 -33 0 -45 -2 -27 -4z"/>
<path d="M10270 5330 c0 -6 7 -10 15 -10 8 0 15 2 15 4 0 2 -7 6 -15 10 -8 3
-15 1 -15 -4z"/>
<path d="M10298 5303 c7 -3 16 -2 19 1 4 3 -2 6 -13 5 -11 0 -14 -3 -6 -6z"/>
<path d="M9640 4429 c0 -5 5 -7 10 -4 6 3 10 8 10 11 0 2 -4 4 -10 4 -5 0 -10
-5 -10 -11z"/>
<path d="M10345 2060 c-3 -5 -1 -10 4 -10 6 0 11 5 11 10 0 6 -2 10 -4 10 -3
0 -8 -4 -11 -10z"/>
<path d="M3915 5460 c-52 -7 -109 -26 -166 -55 -121 -61 -199 -232 -199 -437
0 -168 42 -314 108 -375 48 -44 116 -87 167 -105 49 -17 46 -17 -290 -18 -365
0 -393 -3 -480 -55 -58 -34 -148 -134 -179 -199 -47 -98 -59 -161 -63 -332 -4
-143 -2 -171 17 -245 41 -161 133 -275 277 -344 45 -22 83 -43 83 -47 0 -5
-101 -8 -225 -8 -250 0 -274 -5 -293 -60 -8 -21 -8 -39 0 -61 16 -47 57 -59
193 -59 l115 0 15 -32 c8 -18 12 -23 9 -11 -4 18 0 24 21 29 34 8 5409 -2
5449 -11 72 -15 153 -81 191 -154 57 -111 54 -445 -5 -605 -15 -40 -36 -69
-75 -104 -99 -91 195 -82 -2860 -88 -1899 -4 -2718 -3 -2737 5 -17 6 -29 7
-33 1 -4 -6 -38 -10 -76 -10 -73 0 -122 -17 -133 -45 -11 -31 -6 -62 13 -79
19 -17 169 -18 2913 -17 3185 0 2918 -5 3033 61 188 108 283 366 245 665 -42
337 -162 503 -402 557 l-97 22 20 37 c10 21 19 44 19 52 0 21 -33 47 -76 58
-22 6 -50 21 -64 32 -22 20 -23 20 -10 2 8 -11 21 -26 30 -34 13 -12 13 -13
-4 -7 -10 3 -1140 6 -2510 6 -1664 0 -2510 3 -2546 10 -156 30 -238 127 -275
325 -20 105 -16 291 9 366 31 98 100 175 180 200 33 11 527 14 2622 19 2521 5
2582 5 2603 24 27 24 28 76 2 107 -19 23 -26 24 -208 31 -103 3 -219 7 -257 7
-61 1 -67 3 -61 19 5 9 10 31 13 49 3 25 -1 34 -22 48 -25 17 -83 17 -834 15
-444 -2 -1327 -4 -1962 -4 l-1155 -1 -47 23 c-57 28 -114 96 -138 165 -36 103
-31 280 11 377 25 59 92 123 145 142 32 11 356 13 1754 13 943 0 1781 -1 1863
-3 135 -3 146 -4 138 -20 -5 -9 -11 -42 -15 -72 -6 -58 -6 -59 24 50 7 26 16
36 32 38 30 4 90 7 156 10 37 1 58 8 72 22 29 29 26 74 -6 99 l-26 21 -1982
-1 c-1089 -1 -2003 -5 -2031 -9z m4030 -40 c49 -40 38 -41 -2007 -40 -2247 0
-2027 11 -2140 -100 -59 -58 -69 -73 -89 -140 -30 -98 -33 -276 -6 -362 17
-56 32 -75 135 -173 l43 -40 112 -2 c62 -1 165 -4 229 -5 107 -3 139 2 106 15
-7 3 1 4 19 4 17 -1 29 -5 27 -8 -2 -4 9 -6 24 -6 15 0 21 2 15 4 -7 3 -13 9
-13 14 0 6 5 7 12 3 7 -4 27 -7 46 -6 21 2 31 -1 27 -8 -4 -6 19 -10 67 -10
51 0 68 3 58 10 -13 9 -13 10 1 10 8 0 21 -6 27 -12 10 -10 15 -10 20 -1 5 8
13 9 22 3 19 -12 93 -13 86 -2 -3 5 1 9 9 9 8 0 15 -4 15 -9 0 -4 12 -8 28 -7
l27 1 -25 8 c-18 6 -7 8 43 9 38 1 67 -3 67 -9 0 -5 9 -10 21 -10 11 0 18 4
14 9 -3 6 47 8 126 6 76 -1 125 1 118 6 -10 6 -8 9 9 9 15 0 21 -4 16 -12 -5
-7 -3 -8 5 -4 19 12 309 19 291 7 -8 -5 -12 -13 -9 -16 9 -9 40 6 33 16 -3 5
0 9 5 9 6 0 11 -4 11 -10 0 -5 7 -7 17 -3 15 6 59 7 101 3 12 -1 10 -4 -8 -10
-18 -6 -6 -8 40 -7 37 0 49 2 28 4 -21 2 -38 9 -38 15 0 6 10 8 23 4 12 -3 32
-6 45 -6 13 0 20 -4 17 -10 -6 -10 20 -4 40 10 20 13 120 11 139 -3 10 -8 30
-11 45 -9 23 5 24 6 6 13 -16 6 -14 8 12 8 17 1 43 -3 57 -8 17 -7 26 -7 30 2
3 9 7 8 15 -3 6 -8 11 -10 11 -5 0 12 120 13 139 1 10 -6 12 -6 7 2 -4 7 -2
12 4 12 6 0 13 -6 16 -13 5 -14 44 -21 44 -8 0 11 51 16 125 12 23 -1 27 -3
15 -11 -11 -7 -5 -9 23 -8 20 1 37 6 37 13 0 8 37 12 119 13 97 1 120 -1 125
-13 3 -8 10 -15 16 -15 6 0 9 4 6 9 -4 5 23 9 59 10 36 0 70 3 75 6 14 9 81
-6 74 -16 -3 -5 4 -9 15 -9 11 0 23 5 26 10 4 6 11 7 18 3 14 -9 98 -4 112 6
13 11 75 2 75 -10 0 -5 18 -9 41 -9 24 0 38 4 34 10 -3 6 3 10 14 10 10 0 26
3 35 6 11 4 16 1 16 -10 0 -12 9 -16 33 -15 21 1 25 3 12 6 -39 9 -34 19 11
21 28 1 43 -2 39 -8 -4 -6 -11 -7 -17 -4 -6 4 -8 2 -4 -4 8 -13 99 -8 104 6 2
8 12 8 30 1 15 -6 70 -9 122 -8 53 2 101 -1 108 -5 7 -4 12 -3 12 2 0 6 9 8
20 5 11 -3 20 -14 20 -24 0 -12 -5 -16 -14 -13 -11 4 -14 -1 -12 -20 2 -15 1
-28 -3 -30 -3 -2 -879 -5 -1946 -7 -2062 -3 -1955 -5 -2064 43 -53 23 -149 97
-179 137 -72 98 -98 335 -54 486 31 102 116 202 202 235 43 17 89 24 215 31
88 4 918 9 1845 10 927 1 1732 5 1790 9 147 11 234 7 255 -10z m-3752 -77 c-7
-2 -19 -2 -25 0 -7 3 -2 5 12 5 14 0 19 -2 13 -5z m2160 0 c-7 -2 -19 -2 -25
0 -7 3 -2 5 12 5 14 0 19 -2 13 -5z m-2533 -97 c0 -2 -8 -10 -17 -17 -16 -13
-17 -12 -4 4 13 16 21 21 21 13z m-80 -81 c-6 -16 -9 -34 -6 -41 3 -7 -2 -18
-10 -24 -8 -7 -14 -10 -14 -8 0 15 32 109 36 105 2 -2 0 -17 -6 -32z m-33
-182 c-2 -16 -4 -5 -4 22 0 28 2 40 4 28 2 -13 2 -35 0 -50z m30 0 c-2 -16 -4
-5 -4 22 0 28 2 40 4 28 2 -13 2 -35 0 -50z m210 -389 c-3 -3 -12 -4 -19 -1
-8 3 -5 6 6 6 11 1 17 -2 13 -5z m56 -11 c-7 -2 -19 -2 -25 0 -7 3 -2 5 12 5
14 0 19 -2 13 -5z m550 -10 c-7 -2 -21 -2 -30 0 -10 3 -4 5 12 5 17 0 24 -2
18 -5z m3833 -172 c19 -2 23 -27 6 -31 -10 -2 -1169 -5 -2577 -6 -1806 -1
-2572 -5 -2601 -13 -101 -27 -194 -130 -234 -257 -26 -84 -37 -277 -21 -359
28 -137 61 -225 101 -269 56 -60 128 -93 224 -102 57 -5 77 -4 72 5 -11 17
4977 21 5001 4 13 -10 14 -13 2 -14 -8 0 -2 -5 13 -10 30 -12 45 -39 26 -51
-7 -4 -1167 -7 -2578 -5 l-2565 2 -64 23 c-86 31 -106 45 -173 115 -46 49 -63
77 -87 142 -45 126 -55 190 -48 333 8 179 30 244 131 387 22 32 124 88 181
100 35 7 874 9 2616 8 1410 -1 2569 -2 2575 -2z m-5093 -1018 c-7 -2 -19 -2
-25 0 -7 3 -2 5 12 5 14 0 19 -2 13 -5z m2424 -200 c2696 -2 2824 -3 2817 -14
-5 -8 86 -35 105 -31 7 2 10 -1 7 -6 -3 -6 15 -22 40 -37 142 -83 218 -328
194 -625 -12 -154 -36 -239 -80 -290 -101 -117 -166 -161 -272 -186 -46 -11
-578 -14 -2899 -14 -1995 -1 -2845 2 -2852 9 -8 8 -7 11 2 11 7 0 11 6 8 15
-9 22 40 27 208 20 83 -4 1338 -9 2789 -12 l2640 -5 68 22 c37 12 68 26 68 31
0 5 6 9 13 9 23 0 137 112 156 153 18 40 33 100 46 179 12 78 6 323 -10 403
-19 90 -33 123 -81 182 -54 66 -133 104 -230 110 -52 4 -88 1 -102 -6 -28 -15
-160 -23 -168 -10 -3 6 -10 6 -17 1 -16 -12 -66 -21 -72 -13 -2 4 -383 6 -846
4 -772 -3 -844 -1 -861 14 -10 9 -21 13 -25 10 -3 -4 -1 -7 5 -7 7 0 12 -4 12
-9 0 -14 -402 -12 -418 2 -10 8 -19 7 -34 -2 -11 -7 -17 -8 -13 -2 4 7 -11 11
-44 11 -27 0 -53 -5 -57 -11 -4 -8 -9 -7 -15 2 -7 11 -12 12 -29 2 -25 -16
-64 -17 -54 -2 5 8 1 8 -14 0 -11 -6 -42 -10 -69 -10 -43 1 -45 2 -18 9 24 6
18 8 -27 8 -32 -1 -55 -4 -53 -9 3 -4 -9 -4 -27 2 -43 12 -105 12 -113 -1 -3
-5 -15 -10 -26 -10 -10 0 -19 5 -19 10 0 6 -16 10 -35 10 -19 0 -35 -3 -35 -7
0 -5 -28 -7 -62 -6 -35 1 -63 2 -63 3 0 1 -17 3 -37 6 -22 3 -38 0 -38 -6 0
-5 -10 -10 -22 -10 -17 0 -19 3 -9 9 8 5 -195 7 -475 5 -269 -2 -545 -4 -614
-3 -69 0 -154 -1 -190 -2 -104 -4 -190 -2 -262 5 -38 3 -68 3 -68 -1 0 -10
-204 -8 -318 3 -46 4 -78 10 -71 14 6 4 -56 7 -139 6 -83 -1 -149 1 -146 5 2
4 -7 10 -21 13 -28 7 -33 31 -8 40 9 4 84 9 167 12 94 3 152 9 155 16 2 6 7 5
12 -3 7 -12 432 -14 2646 -16z m-2459 20 c-10 -2 -28 -2 -40 0 -13 2 -5 4 17
4 22 1 32 -1 23 -4z m5195 -110 c-13 -2 -33 -2 -45 0 -13 2 -3 4 22 4 25 0 35
-2 23 -4z m-2560 -10 c-7 -2 -19 -2 -25 0 -7 3 -2 5 12 5 14 0 19 -2 13 -5z
m2630 0 c-7 -2 -21 -2 -30 0 -10 3 -4 5 12 5 17 0 24 -2 18 -5z m234 -430 c-3
-10 -5 -2 -5 17 0 19 2 27 5 18 2 -10 2 -26 0 -35z m10 -45 c-3 -8 -6 -5 -6 6
-1 11 2 17 5 13 3 -3 4 -12 1 -19z m-4 -99 c-5 -5 -7 7 -4 29 5 34 6 35 9 8 2
-16 0 -32 -5 -37z m-12 -121 l-9 -33 -1 45 c0 25 3 56 7 70 6 23 7 22 10 -12
2 -20 -1 -51 -7 -70z m-3478 -325 c-13 -2 -33 -2 -45 0 -13 2 -3 4 22 4 25 0
35 -2 23 -4z m1735 0 c-10 -2 -26 -2 -35 0 -10 3 -2 5 17 5 19 0 27 -2 18 -5z
m385 0 c-13 -2 -35 -2 -50 0 -16 2 -5 4 22 4 28 0 40 -2 28 -4z m405 0 c-10
-2 -26 -2 -35 0 -10 3 -2 5 17 5 19 0 27 -2 18 -5z m145 0 c-7 -2 -21 -2 -30
0 -10 3 -4 5 12 5 17 0 24 -2 18 -5z m65 0 c-10 -2 -26 -2 -35 0 -10 3 -2 5
17 5 19 0 27 -2 18 -5z m115 0 c-7 -2 -21 -2 -30 0 -10 3 -4 5 12 5 17 0 24
-2 18 -5z m60 0 c-7 -2 -21 -2 -30 0 -10 3 -4 5 12 5 17 0 24 -2 18 -5z m115
0 c-10 -2 -28 -2 -40 0 -13 2 -5 4 17 4 22 1 32 -1 23 -4z m65 0 c-7 -2 -19
-2 -25 0 -7 3 -2 5 12 5 14 0 19 -2 13 -5z m-5290 -10 c-7 -2 -19 -2 -25 0 -7
3 -2 5 12 5 14 0 19 -2 13 -5z m124 1 c-3 -3 -12 -4 -19 -1 -8 3 -5 6 6 6 11
1 17 -2 13 -5z m160 -90 c-3 -3 -12 -4 -19 -1 -8 3 -5 6 6 6 11 1 17 -2 13 -5z
m440 0 c-3 -3 -12 -4 -19 -1 -8 3 -5 6 6 6 11 1 17 -2 13 -5z m40 0 c-3 -3
-12 -4 -19 -1 -8 3 -5 6 6 6 11 1 17 -2 13 -5z m241 -1 c-16 -2 -40 -2 -55 0
-16 2 -3 4 27 4 30 0 43 -2 28 -4z m75 0 c-7 -2 -21 -2 -30 0 -10 3 -4 5 12 5
17 0 24 -2 18 -5z m75 0 c-10 -2 -28 -2 -40 0 -13 2 -5 4 17 4 22 1 32 -1 23
-4z m170 0 c-15 -2 -42 -2 -60 0 -18 2 -6 4 27 4 33 0 48 -2 33 -4z m59 1 c-3
-3 -12 -4 -19 -1 -8 3 -5 6 6 6 11 1 17 -2 13 -5z m50 0 c-3 -3 -12 -4 -19 -1
-8 3 -5 6 6 6 11 1 17 -2 13 -5z m246 -1 c-40 -2 -106 -2 -145 0 -40 1 -8 3
72 3 80 0 112 -2 73 -3z m200 0 c-18 -2 -48 -2 -65 0 -18 2 -4 4 32 4 36 0 50
-2 33 -4z m70 0 c-7 -2 -19 -2 -25 0 -7 3 -2 5 12 5 14 0 19 -2 13 -5z m440 0
c-79 -2 -207 -2 -285 0 -79 1 -15 3 142 3 157 0 221 -2 143 -3z m275 0 c-21
-2 -55 -2 -75 0 -21 2 -4 4 37 4 41 0 58 -2 38 -4z m230 0 c-32 -2 -86 -2
-120 0 -35 2 -9 3 57 3 66 0 94 -1 63 -3z m89 1 c-3 -3 -12 -4 -19 -1 -8 3 -5
6 6 6 11 1 17 -2 13 -5z m111 -1 c-16 -2 -40 -2 -55 0 -16 2 -3 4 27 4 30 0
43 -2 28 -4z m270 0 c-38 -2 -98 -2 -135 0 -38 2 -7 3 67 3 74 0 105 -1 68 -3z
m115 0 c-7 -2 -21 -2 -30 0 -10 3 -4 5 12 5 17 0 24 -2 18 -5z m215 0 c-21 -2
-57 -2 -80 0 -24 2 -7 4 37 4 44 0 63 -2 43 -4z m159 0 c-20 -2 -52 -2 -70 0
-17 2 0 4 38 4 39 0 53 -2 32 -4z m121 0 c-10 -2 -28 -2 -40 0 -13 2 -5 4 17
4 22 1 32 -1 23 -4z m49 1 c-3 -3 -12 -4 -19 -1 -8 3 -5 6 6 6 11 1 17 -2 13
-5z m216 -1 c-7 -2 -19 -2 -25 0 -7 3 -2 5 12 5 14 0 19 -2 13 -5z m120 0 c-7
-2 -19 -2 -25 0 -7 3 -2 5 12 5 14 0 19 -2 13 -5z m135 0 c-10 -2 -26 -2 -35
0 -10 3 -2 5 17 5 19 0 27 -2 18 -5z m400 0 c-10 -2 -26 -2 -35 0 -10 3 -2 5
17 5 19 0 27 -2 18 -5z m99 1 c-3 -3 -12 -4 -19 -1 -8 3 -5 6 6 6 11 1 17 -2
13 -5z"/>
<path d="M5396 4568 c3 -4 9 -8 15 -8 5 0 9 4 9 8 0 5 -7 9 -15 9 -8 0 -12 -4
-9 -9z"/>
<path d="M4868 4563 c12 -2 30 -2 40 0 9 3 -1 5 -23 4 -22 0 -30 -2 -17 -4z"/>
<path d="M4338 3113 c6 -2 18 -2 25 0 6 3 1 5 -13 5 -14 0 -19 -2 -12 -5z"/>
<path d="M5608 3113 c7 -3 16 -2 19 1 4 3 -2 6 -13 5 -11 0 -14 -3 -6 -6z"/>
<path d="M6477 3109 c7 -7 15 -10 18 -7 3 3 -2 9 -12 12 -14 6 -15 5 -6 -5z"/>
<path d="M8005 3110 c-4 -6 10 -10 34 -10 23 0 41 5 41 10 0 6 -15 10 -34 10
-19 0 -38 -4 -41 -10z"/>
<path d="M7460 3099 c0 -5 5 -7 10 -4 6 3 10 8 10 11 0 2 -4 4 -10 4 -5 0 -10
-5 -10 -11z"/>
<path d="M8128 3103 c7 -3 16 -2 19 1 4 3 -2 6 -13 5 -11 0 -14 -3 -6 -6z"/>
<path d="M7338 3093 c7 -3 16 -2 19 1 4 3 -2 6 -13 5 -11 0 -14 -3 -6 -6z"/>
<path d="M7737 5253 c-4 -3 -7 -20 -6 -37 l1 -31 8 35 c9 36 8 45 -3 33z"/>
<path d="M7663 5153 c-3 -7 -3 -18 0 -25 4 -8 6 -6 6 5 1 10 9 17 21 17 11 0
20 4 20 8 0 13 -42 9 -47 -5z"/>
<path d="M7718 5136 c-2 -19 -1 -43 3 -53 5 -11 8 2 8 35 1 59 -5 69 -11 18z"/>
<path d="M7650 5099 c0 -5 5 -7 10 -4 6 3 10 8 10 11 0 2 -4 4 -10 4 -5 0 -10
-5 -10 -11z"/>
<path d="M7716 5045 c-9 -26 -7 -32 5 -12 6 10 9 21 6 23 -2 3 -7 -2 -11 -11z"/>
<path d="M7651 4934 c0 -11 3 -14 6 -6 3 7 2 16 -1 19 -3 4 -6 -2 -5 -13z"/>
<path d="M7730 4811 c0 -6 4 -13 10 -16 6 -3 7 1 4 9 -7 18 -14 21 -14 7z"/>
<path d="M7750 4742 c0 -13 7 -30 15 -38 19 -19 19 -15 0 27 -12 29 -14 31
-15 11z"/>
<path d="M8175 4110 c-4 -17 -5 -34 -2 -36 2 -3 7 10 11 27 8 42 0 50 -9 9z"/>
<path d="M6058 4063 c7 -3 16 -2 19 1 4 3 -2 6 -13 5 -11 0 -14 -3 -6 -6z"/>
<path d="M8222 4040 c0 -19 2 -27 5 -17 2 9 2 25 0 35 -3 9 -5 1 -5 -18z"/>
<path d="M8152 3970 c0 -14 2 -19 5 -12 2 6 2 18 0 25 -3 6 -5 1 -5 -13z"/>
<path d="M8209 3938 c0 -18 -1 -63 -3 -101 -2 -37 1 -70 5 -73 5 -3 9 42 9
100 0 58 -2 106 -5 106 -3 0 -5 -15 -6 -32z"/>
<path d="M8151 3804 c0 -11 3 -14 6 -6 3 7 2 16 -1 19 -3 4 -6 -2 -5 -13z"/>
<path d="M8221 3707 c0 -27 5 -63 13 -80 8 -18 20 -50 26 -72 15 -47 50 -119
55 -113 2 2 -7 26 -20 53 -21 44 -56 164 -68 235 -2 14 -5 3 -6 -23z"/>
<path d="M3020 3013 c0 -13 5 -22 12 -20 7 1 15 -13 19 -33 l6 -35 2 31 c0 19
-7 42 -19 55 l-19 24 -1 -22z"/>
<path d="M3050 2911 c0 -5 5 -13 10 -16 6 -3 10 -2 10 4 0 5 -4 13 -10 16 -5
3 -10 2 -10 -4z"/>
<path d="M3011 2864 c0 -11 3 -14 6 -6 3 7 2 16 -1 19 -3 4 -6 -2 -5 -13z"/>
<path d="M3072 2740 c0 -14 2 -19 5 -12 2 6 2 18 0 25 -3 6 -5 1 -5 -13z"/>
<path d="M3072 2660 c0 -14 2 -19 5 -12 2 6 2 18 0 25 -3 6 -5 1 -5 -13z"/>
<path d="M3072 2590 c0 -19 2 -27 5 -17 2 9 2 25 0 35 -3 9 -5 1 -5 -18z"/>
</g>
</svg>
